<svg xmlns="http://www.w3.org/2000/svg" id="fc2635f1-1c96-4b69-97f0-27e28626771c" data-name="Camada 1" viewBox="0 0 160.29 62"><defs><style>.f3de105a-81cb-43d2-9826-7e43ac97bf26{fill:#00a551;}.f06bb241-b723-4603-b453-5a7e709c270b,.f3de105a-81cb-43d2-9826-7e43ac97bf26{fill-rule:evenodd;}.f06bb241-b723-4603-b453-5a7e709c270b{fill:#ec1c24;}.a726c922-cd4e-4fb6-8e8d-5ea14c48baef{fill:#606060;}</style></defs><path class="f3de105a-81cb-43d2-9826-7e43ac97bf26" d="M56.8,18.54h3.58c5.77,0,9.52,3.12,9.52,8V42.35H56.8Zm-15.67,0H54.06V42.35H41.13Z"></path><path class="f3de105a-81cb-43d2-9826-7e43ac97bf26" d="M107.7,18.54h13V42.35h-13Zm-15.59,0H105V42.35h-1.44c-7.07,0-11.41-3.12-11.41-8.22Z"></path><path class="f3de105a-81cb-43d2-9826-7e43ac97bf26" d="M141.11,18.54h3.58c5.77,0,9.52,3.12,9.52,8V42.35h-13.1Zm-15.68,0h12.94V42.35H125.43Z"></path><path class="f3de105a-81cb-43d2-9826-7e43ac97bf26" d="M74.58,18.54V41c0,8.67-9.64,19.23-55.73,4.23C38.6,55.49,87.6,73.9,87.6,40V18.54Z"></path><path class="f06bb241-b723-4603-b453-5a7e709c270b" d="M88.67,8A7.58,7.58,0,1,1,81.09.46,7.57,7.57,0,0,1,88.67,8"></path><path class="f3de105a-81cb-43d2-9826-7e43ac97bf26" d="M154.66,15.3h.28a3.67,3.67,0,0,0,.75,0,.4.4,0,0,0,.23-.17.39.39,0,0,0,.09-.26.5.5,0,0,0-.08-.26.51.51,0,0,0-.24-.16,3.45,3.45,0,0,0-.75-.05h-.28Zm-.71,2V13.82h1.81a1.42,1.42,0,0,1,.54.13,1.12,1.12,0,0,1,.32.33,1.06,1.06,0,0,1,.13.5.93.93,0,0,1-.24.64,1.17,1.17,0,0,1-.69.32.86.86,0,0,1,.24.13,1.9,1.9,0,0,1,.23.27,3.15,3.15,0,0,1,.26.42l.41.69h-.87l-.29-.56a2.31,2.31,0,0,0-.48-.71.83.83,0,0,0-.48-.14h-.18v1.41Zm1.48-4.34a2.68,2.68,0,0,1,1.28.33,2.36,2.36,0,0,1,1,1,2.61,2.61,0,0,1,.36,1.31,2.68,2.68,0,0,1-.35,1.31,2.46,2.46,0,0,1-1,1,2.67,2.67,0,0,1-1.3.35,2.61,2.61,0,0,1-1.3-.35,2.4,2.4,0,0,1-1-1,2.68,2.68,0,0,1-.35-1.31,2.71,2.71,0,0,1,.35-1.31,2.42,2.42,0,0,1,1-1,2.69,2.69,0,0,1,1.29-.33m0-.64a3.27,3.27,0,0,1,1.6.42,3,3,0,0,1,1.21,1.19,3.25,3.25,0,0,1,0,3.25,3.14,3.14,0,0,1-1.2,1.2,3.22,3.22,0,0,1-1.62.43,3.28,3.28,0,0,1-1.62-.43,3.05,3.05,0,0,1-1.19-1.2,3.22,3.22,0,0,1-.43-1.62,3.31,3.31,0,0,1,.43-1.63,3.08,3.08,0,0,1,1.21-1.19,3.27,3.27,0,0,1,1.6-.42"></path><polygon class="f3de105a-81cb-43d2-9826-7e43ac97bf26" points="14.71 9.65 24.49 9.65 38.6 42.35 17.58 42.35 11.72 28.28 8.73 28.28 14.54 42.35 0.85 42.35 7.8 25.92 10.71 25.92 9.32 22.5 14.71 9.65"></polygon><path class="f3de105a-81cb-43d2-9826-7e43ac97bf26" d="M56.8,18.54h3.58c5.77,0,9.52,3.12,9.52,8V42.35H56.8Zm-15.67,0H54.06V42.35H41.13Z"></path><path class="f3de105a-81cb-43d2-9826-7e43ac97bf26" d="M107.7,18.54h13V42.35h-13Zm-15.59,0H105V42.35h-1.44c-7.07,0-11.41-3.12-11.41-8.22Z"></path><path class="f3de105a-81cb-43d2-9826-7e43ac97bf26" d="M141.11,18.54h3.58c5.77,0,9.52,3.12,9.52,8V42.35h-13.1Zm-15.68,0h12.94V42.35H125.43Z"></path><path class="f3de105a-81cb-43d2-9826-7e43ac97bf26" d="M74.58,18.54V41c0,8.67-9.64,19.23-55.73,4.23C38.6,55.49,87.6,73.9,87.6,40V18.54Z"></path><path class="f06bb241-b723-4603-b453-5a7e709c270b" d="M88.67,8A7.58,7.58,0,1,1,81.09.46,7.57,7.57,0,0,1,88.67,8"></path><path class="f3de105a-81cb-43d2-9826-7e43ac97bf26" d="M154.66,15.3h.28a3.67,3.67,0,0,0,.75,0,.4.4,0,0,0,.23-.17.39.39,0,0,0,.09-.26.5.5,0,0,0-.08-.26.51.51,0,0,0-.24-.16,3.45,3.45,0,0,0-.75-.05h-.28Zm-.71,2V13.82h1.81a1.42,1.42,0,0,1,.54.13,1.12,1.12,0,0,1,.32.33,1.06,1.06,0,0,1,.13.5.93.93,0,0,1-.24.64,1.17,1.17,0,0,1-.69.32.86.86,0,0,1,.24.13,1.9,1.9,0,0,1,.23.27,3.15,3.15,0,0,1,.26.42l.41.69h-.87l-.29-.56a2.31,2.31,0,0,0-.48-.71.83.83,0,0,0-.48-.14h-.18v1.41Zm1.48-4.34a2.68,2.68,0,0,1,1.28.33,2.36,2.36,0,0,1,1,1,2.61,2.61,0,0,1,.36,1.31,2.68,2.68,0,0,1-.35,1.31,2.46,2.46,0,0,1-1,1,2.67,2.67,0,0,1-1.3.35,2.61,2.61,0,0,1-1.3-.35,2.4,2.4,0,0,1-1-1,2.68,2.68,0,0,1-.35-1.31,2.71,2.71,0,0,1,.35-1.31,2.42,2.42,0,0,1,1-1,2.69,2.69,0,0,1,1.29-.33m0-.64a3.27,3.27,0,0,1,1.6.42,3,3,0,0,1,1.21,1.19,3.25,3.25,0,0,1,0,3.25,3.14,3.14,0,0,1-1.2,1.2,3.22,3.22,0,0,1-1.62.43,3.28,3.28,0,0,1-1.62-.43,3.05,3.05,0,0,1-1.19-1.2,3.22,3.22,0,0,1-.43-1.62,3.31,3.31,0,0,1,.43-1.63,3.08,3.08,0,0,1,1.21-1.19,3.27,3.27,0,0,1,1.6-.42"></path><path class="a726c922-cd4e-4fb6-8e8d-5ea14c48baef" d="M109.71,46.94h3.84a6.49,6.49,0,0,1,3.33.67A2.26,2.26,0,0,1,118,49.68a2.58,2.58,0,0,1-.48,1.58,2.13,2.13,0,0,1-1.25.85v.07a2.54,2.54,0,0,1,1.48.9,2.7,2.7,0,0,1,.46,1.64,2.8,2.8,0,0,1-1.12,2.36A4.89,4.89,0,0,1,114,58h-4.28Zm3,4.22h.9a1.62,1.62,0,0,0,1-.26.92.92,0,0,0,.35-.78c0-.62-.47-.93-1.4-.93h-.84Zm0,2.18v2.31h1c.93,0,1.39-.39,1.39-1.17a1,1,0,0,0-.37-.85,1.76,1.76,0,0,0-1.08-.29Z"></path><path class="a726c922-cd4e-4fb6-8e8d-5ea14c48baef" d="M125.07,49.27a4.23,4.23,0,0,1,.73.06l.17,0-.27,2.78a4.22,4.22,0,0,0-1-.1,1.88,1.88,0,0,0-1.4.45,1.7,1.7,0,0,0-.43,1.26V58h-3V49.42h2.19l.46,1.36h.14a2.91,2.91,0,0,1,1-1.09A2.45,2.45,0,0,1,125.07,49.27Z"></path><path class="a726c922-cd4e-4fb6-8e8d-5ea14c48baef" d="M132.72,58l-.57-1.13h-.06a3.43,3.43,0,0,1-1.21,1,4,4,0,0,1-1.6.27,2.46,2.46,0,0,1-1.89-.73,2.82,2.82,0,0,1-.69-2,2.32,2.32,0,0,1,.94-2,5.3,5.3,0,0,1,2.75-.75l1.42,0V52.4a.93.93,0,0,0-1-1.06,6.29,6.29,0,0,0-2.37.64L127.55,50a8.11,8.11,0,0,1,3.77-.77,3.67,3.67,0,0,1,2.54.81,2.9,2.9,0,0,1,.9,2.27V58ZM130.53,56a1.33,1.33,0,0,0,.92-.34,1.14,1.14,0,0,0,.38-.88v-.66l-.68,0c-1,0-1.45.39-1.45,1.07C129.7,55.76,130,56,130.53,56Z"></path><path class="a726c922-cd4e-4fb6-8e8d-5ea14c48baef" d="M143.34,55.33a2.44,2.44,0,0,1-.93,2.07,4.46,4.46,0,0,1-2.68.7,11.28,11.28,0,0,1-1.65-.11,6.71,6.71,0,0,1-1.43-.37V55.27a9.09,9.09,0,0,0,1.5.49,6.42,6.42,0,0,0,1.46.2c.64,0,1-.15,1-.44a.49.49,0,0,0-.27-.4,11.86,11.86,0,0,0-1.56-.69,3.86,3.86,0,0,1-1.64-1.09,2.51,2.51,0,0,1-.46-1.56,2.15,2.15,0,0,1,.91-1.85,4.42,4.42,0,0,1,2.6-.66,6.79,6.79,0,0,1,1.59.18,9.71,9.71,0,0,1,1.53.54l-.79,1.9a8.29,8.29,0,0,0-1.24-.45,4.39,4.39,0,0,0-1.07-.19c-.49,0-.73.12-.73.36a.45.45,0,0,0,.26.37,14.05,14.05,0,0,0,1.45.63,6.11,6.11,0,0,1,1.34.72,2.24,2.24,0,0,1,.65.83A3.11,3.11,0,0,1,143.34,55.33Z"></path><path class="a726c922-cd4e-4fb6-8e8d-5ea14c48baef" d="M144.92,47.3a1.26,1.26,0,0,1,.36-1,2.36,2.36,0,0,1,2.39,0,1.24,1.24,0,0,1,.38,1c0,.86-.53,1.29-1.58,1.29S144.92,48.16,144.92,47.3Zm3,10.65H145V49.42h2.94Z"></path><path class="a726c922-cd4e-4fb6-8e8d-5ea14c48baef" d="M152.93,58H150V46.24h2.94Z"></path></svg>